<svg id="Capa_1" data-name="Capa 1" xmlns="http://www.w3.org/2000/svg" xmlns:xlink="http://www.w3.org/1999/xlink" viewBox="0 0 403 231.2"><defs><style>.cls-1,.cls-7{stroke:#41a62a;}.cls-1,.cls-26,.cls-27,.cls-3,.cls-30,.cls-5,.cls-7{stroke-miterlimit:3.86;}.cls-1{stroke-width:0.42px;fill:url(#linear-gradient);}.cls-2{fill:url(#linear-gradient-2);}.cls-3,.cls-5{stroke:#0b72b5;}.cls-3{stroke-width:0.59px;fill:url(#linear-gradient-3);}.cls-4{fill:url(#linear-gradient-4);}.cls-5{stroke-width:0.28px;fill:url(#linear-gradient-5);}.cls-6{fill:url(#linear-gradient-6);}.cls-7{stroke-width:0.32px;fill:url(#linear-gradient-7);}.cls-8{fill:url(#linear-gradient-8);}.cls-9{stroke:#97bf0d;stroke-width:1.24px;fill:url(#radial-gradient);}.cls-14,.cls-15,.cls-16,.cls-17,.cls-9{stroke-miterlimit:3.86;}.cls-10{fill:url(#linear-gradient-9);}.cls-11{fill:url(#linear-gradient-10);}.cls-12{fill:url(#linear-gradient-11);}.cls-13{fill:url(#radial-gradient-2);}.cls-14,.cls-15,.cls-16,.cls-17{stroke-width:0.36px;}.cls-14{fill:url(#linear-gradient-12);stroke:url(#linear-gradient-13);}.cls-15{fill:url(#linear-gradient-14);stroke:url(#linear-gradient-15);}.cls-16{fill:url(#linear-gradient-16);stroke:url(#linear-gradient-17);}.cls-17{stroke:#39a9dc;fill:url(#radial-gradient-3);}.cls-18{fill:url(#linear-gradient-18);}.cls-19{fill:url(#linear-gradient-19);}.cls-20{fill:url(#linear-gradient-20);}.cls-21{fill:url(#radial-gradient-4);}.cls-22{fill:url(#radial-gradient-5);}.cls-23{fill:url(#radial-gradient-6);}.cls-24{fill:url(#linear-gradient-21);}.cls-25{fill:url(#linear-gradient-22);}.cls-26,.cls-27{stroke-width:0.54px;}.cls-26{fill:url(#radial-gradient-7);stroke:url(#radial-gradient-8);}.cls-27{fill:url(#radial-gradient-9);stroke:url(#radial-gradient-10);}.cls-28{fill:url(#linear-gradient-23);}.cls-29{fill:#1a171b;}.cls-30{stroke-width:2.02px;fill:url(#linear-gradient-24);stroke:url(#linear-gradient-25);}.cls-31{fill:url(#linear-gradient-26);}</style><linearGradient id="linear-gradient" x1="294.48" y1="212.34" x2="294.48" y2="232.34" gradientTransform="matrix(-1, 0, 0, 1, 554.3, 0)" gradientUnits="userSpaceOnUse"><stop offset="0" stop-color="#97bf0d"/><stop offset="1" stop-color="#008a2e"/></linearGradient><linearGradient id="linear-gradient-2" x1="284.48" y1="218.15" x2="304.47" y2="218.15" gradientTransform="matrix(-1, 0, 0, 1, 554.3, 0)" gradientUnits="userSpaceOnUse"><stop offset="0" stop-color="#fff" stop-opacity="0.5"/><stop offset="0.67" stop-color="#fff" stop-opacity="0"/></linearGradient><linearGradient id="linear-gradient-3" x1="279.83" y1="227.94" x2="279.83" y2="256.25" gradientTransform="matrix(-1, 0, 0, 1, 554.3, 0)" gradientUnits="userSpaceOnUse"><stop offset="0" stop-color="#39a9dc"/><stop offset="1" stop-color="#0b72b5"/></linearGradient><linearGradient id="linear-gradient-4" x1="265.68" y1="236.17" x2="293.99" y2="236.17" xlink:href="#linear-gradient-2"/><linearGradient id="linear-gradient-5" x1="307.13" y1="204.07" x2="307.13" y2="217.41" xlink:href="#linear-gradient-3"/><linearGradient id="linear-gradient-6" x1="300.46" y1="207.95" x2="313.81" y2="207.95" xlink:href="#linear-gradient-2"/><linearGradient id="linear-gradient-7" x1="314.79" y1="226.69" x2="314.79" y2="242" xlink:href="#linear-gradient"/><linearGradient id="linear-gradient-8" x1="307.13" y1="231.14" x2="322.44" y2="231.14" xlink:href="#linear-gradient-2"/><radialGradient id="radial-gradient" cx="237.21" cy="330.98" r="85.53" gradientTransform="matrix(-1, 0, 0, 1, 554.3, 0)" gradientUnits="userSpaceOnUse"><stop offset="0.07" stop-color="#d5e2a4"/><stop offset="0.36" stop-color="#97bf0d"/><stop offset="0.49" stop-color="#94be0e"/><stop offset="0.58" stop-color="#8bbb11"/><stop offset="0.66" stop-color="#7bb716"/><stop offset="0.73" stop-color="#65b01e"/><stop offset="0.8" stop-color="#49a827"/><stop offset="0.82" stop-color="#41a62a"/><stop offset="1" stop-color="#00632e"/></radialGradient><linearGradient id="linear-gradient-9" x1="171.9" y1="426.8" x2="289.23" y2="259.24" gradientTransform="matrix(-1, 0, 0, 1, 554.3, 0)" gradientUnits="userSpaceOnUse"><stop offset="0.61" stop-color="#fff" stop-opacity="0"/><stop offset="0.65" stop-color="#a8c0b3" stop-opacity="0.34"/><stop offset="0.7" stop-color="#4c7c62" stop-opacity="0.7"/><stop offset="0.74" stop-color="#145331" stop-opacity="0.92"/><stop offset="0.78" stop-color="#004520"/><stop offset="0.8" stop-color="#4d7d64" stop-opacity="0.7"/><stop offset="0.84" stop-color="#9cb7a8" stop-opacity="0.39"/><stop offset="0.88" stop-color="#d4e0d9" stop-opacity="0.17"/><stop offset="0.93" stop-color="#f5f8f6" stop-opacity="0.04"/><stop offset="1" stop-color="#fff" stop-opacity="0"/></linearGradient><linearGradient id="linear-gradient-10" x1="150.31" y1="329.41" x2="303.02" y2="329.41" gradientTransform="matrix(-1, 0, 0, 1, 554.3, 0)" gradientUnits="userSpaceOnUse"><stop offset="0" stop-color="#fff" stop-opacity="0"/><stop offset="0.16" stop-color="#fff" stop-opacity="0.01"/><stop offset="0.29" stop-color="#fff" stop-opacity="0.05"/><stop offset="0.41" stop-color="#fff" stop-opacity="0.12"/><stop offset="0.52" stop-color="#fff" stop-opacity="0.22"/><stop offset="0.6" stop-color="#fff" stop-opacity="0.3"/><stop offset="1" stop-color="#fff" stop-opacity="0"/></linearGradient><linearGradient id="linear-gradient-11" x1="179.3" y1="348.26" x2="277.01" y2="348.26" gradientTransform="matrix(-1, 0, 0, 1, 554.3, 0)" gradientUnits="userSpaceOnUse"><stop offset="0" stop-color="#fff" stop-opacity="0"/><stop offset="0.55" stop-color="#fff"/><stop offset="1" stop-color="#fff" stop-opacity="0"/></linearGradient><radialGradient id="radial-gradient-2" cx="218.29" cy="411.97" r="135.38" gradientTransform="matrix(-1, 0, 0, 0.19, 554.3, 333.7)" gradientUnits="userSpaceOnUse"><stop offset="0" stop-color="#9c9e9f"/><stop offset="1" stop-color="#fff" stop-opacity="0"/></radialGradient><linearGradient id="linear-gradient-12" x1="198.88" y1="385.86" x2="280.2" y2="378.75" gradientTransform="matrix(-1, 0, 0, 1, 554.3, 0)" gradientUnits="userSpaceOnUse"><stop offset="0.49" stop-color="#39a9dc"/><stop offset="0.77" stop-color="#deecf7"/><stop offset="0.95" stop-color="#0b72b5"/></linearGradient><linearGradient id="linear-gradient-13" x1="239.02" y1="373.15" x2="239.02" y2="389.13" gradientTransform="matrix(-1, 0, 0, 1, 554.3, 0)" gradientUnits="userSpaceOnUse"><stop offset="0.12" stop-color="#39a9dc"/><stop offset="0.41" stop-color="#deecf7"/><stop offset="0.72" stop-color="#0b72b5"/></linearGradient><linearGradient id="linear-gradient-14" x1="233.32" y1="362.98" x2="292.54" y2="356.76" gradientTransform="matrix(-1, 0, 0, 1, 554.3, 0)" gradientUnits="userSpaceOnUse"><stop offset="0.57" stop-color="#97bf0d"/><stop offset="0.8" stop-color="#d5e2a4"/><stop offset="0.94" stop-color="#97bf0d"/></linearGradient><linearGradient id="linear-gradient-15" x1="262.5" y1="353.35" x2="262.5" y2="365.1" gradientTransform="matrix(-1, 0, 0, 1, 554.3, 0)" gradientUnits="userSpaceOnUse"><stop offset="0.25" stop-color="#97bf0d"/><stop offset="0.41" stop-color="#dfdb00"/><stop offset="0.78" stop-color="#41a62a"/></linearGradient><linearGradient id="linear-gradient-16" x1="255.94" y1="344.16" x2="293.06" y2="342.21" gradientTransform="matrix(-1, 0, 0, 1, 554.3, 0)" gradientUnits="userSpaceOnUse"><stop offset="0.46" stop-color="#39a9dc"/><stop offset="0.75" stop-color="#deecf7"/><stop offset="0.93" stop-color="#0b72b5"/></linearGradient><linearGradient id="linear-gradient-17" x1="274.39" y1="338.9" x2="274.39" y2="346.35" xlink:href="#linear-gradient-13"/><radialGradient id="radial-gradient-3" cx="245.94" cy="310.6" r="83.86" gradientTransform="matrix(-1, 0, 0, 1, 554.3, 0)" gradientUnits="userSpaceOnUse"><stop offset="0" stop-color="#c6dff2"/><stop offset="0.38" stop-color="#39a9dc"/><stop offset="0.77" stop-color="#0b72b5"/><stop offset="0.82" stop-color="#0b6fb2"/><stop offset="0.87" stop-color="#0c66a7"/><stop offset="0.91" stop-color="#0e5696"/><stop offset="0.96" stop-color="#10417d"/><stop offset="1" stop-color="#13255d"/><stop offset="1" stop-color="#13235b"/></radialGradient><linearGradient id="linear-gradient-18" x1="183.14" y1="306.96" x2="306.23" y2="306.96" gradientTransform="matrix(-1, 0, 0, 1, 554.3, 0)" gradientUnits="userSpaceOnUse"><stop offset="0.07" stop-color="#fff" stop-opacity="0"/><stop offset="0.55" stop-color="#fff"/><stop offset="0.91" stop-color="#fff" stop-opacity="0"/></linearGradient><linearGradient id="linear-gradient-19" x1="284.98" y1="382.72" x2="286.97" y2="382.72" xlink:href="#linear-gradient-18"/><linearGradient id="linear-gradient-20" x1="279.24" y1="386.4" x2="284.92" y2="386.4" xlink:href="#linear-gradient-18"/><radialGradient id="radial-gradient-4" cx="241.97" cy="244.32" r="19.29" gradientTransform="matrix(-1, 0, 0, 1, 554.3, 0)" gradientUnits="userSpaceOnUse"><stop offset="0" stop-color="#d5e2a4"/><stop offset="0.36" stop-color="#97bf0d"/><stop offset="0.53" stop-color="#94be0e"/><stop offset="0.65" stop-color="#8bbb11"/><stop offset="0.76" stop-color="#7bb716"/><stop offset="0.86" stop-color="#65b01e"/><stop offset="0.95" stop-color="#49a827"/><stop offset="0.97" stop-color="#41a62a"/></radialGradient><radialGradient id="radial-gradient-5" cx="235.63" cy="250.39" r="0" xlink:href="#radial-gradient-4"/><radialGradient id="radial-gradient-6" cx="235.13" cy="254" r="16.4" gradientTransform="matrix(-1, 0, 0, 1, 554.3, 0)" gradientUnits="userSpaceOnUse"><stop offset="0" stop-color="#fff"/><stop offset="0.91" stop-color="#fff" stop-opacity="0"/></radialGradient><linearGradient id="linear-gradient-21" x1="235.68" y1="248.39" x2="235.68" y2="232.18" gradientTransform="matrix(-1, 0, 0, 1, 554.3, 0)" gradientUnits="userSpaceOnUse"><stop offset="0.02" stop-color="#fff" stop-opacity="0"/><stop offset="0.11" stop-color="#fff" stop-opacity="0.02"/><stop offset="0.24" stop-color="#fff" stop-opacity="0.08"/><stop offset="0.37" stop-color="#fff" stop-opacity="0.18"/><stop offset="0.51" stop-color="#fff" stop-opacity="0.31"/><stop offset="0.66" stop-color="#fff" stop-opacity="0.49"/><stop offset="0.82" stop-color="#fff" stop-opacity="0.7"/><stop offset="0.97" stop-color="#fff" stop-opacity="0.95"/><stop offset="1" stop-color="#fff"/></linearGradient><linearGradient id="linear-gradient-22" x1="193.62" y1="303.27" x2="307.38" y2="303.27" xlink:href="#linear-gradient-18"/><radialGradient id="radial-gradient-7" cx="429.24" cy="257.87" r="14.08" gradientUnits="userSpaceOnUse"><stop offset="0" stop-color="#97bf0d"/><stop offset="0.17" stop-color="#94be0e"/><stop offset="0.29" stop-color="#8bbb11"/><stop offset="0.39" stop-color="#7bb716"/><stop offset="0.49" stop-color="#65b01e"/><stop offset="0.58" stop-color="#49a827"/><stop offset="0.6" stop-color="#41a62a"/><stop offset="1" stop-color="#00632e"/></radialGradient><radialGradient id="radial-gradient-8" cx="429.6" cy="258.61" r="10.59" gradientUnits="userSpaceOnUse"><stop offset="0" stop-color="#97bf0d"/><stop offset="0.17" stop-color="#94be0e"/><stop offset="0.29" stop-color="#8bbb11"/><stop offset="0.39" stop-color="#7bb716"/><stop offset="0.49" stop-color="#65b01e"/><stop offset="0.58" stop-color="#49a827"/><stop offset="0.6" stop-color="#41a62a"/><stop offset="0.7" stop-color="#3da22a"/><stop offset="0.79" stop-color="#32962b"/><stop offset="0.89" stop-color="#1f832c"/><stop offset="0.99" stop-color="#04682e"/><stop offset="1" stop-color="#00632e"/></radialGradient><radialGradient id="radial-gradient-9" cx="429.61" cy="258.61" r="0" xlink:href="#radial-gradient-7"/><radialGradient id="radial-gradient-10" cx="429.61" cy="258.61" r="0" xlink:href="#radial-gradient-8"/><linearGradient id="linear-gradient-23" x1="424.48" y1="268.32" x2="427.35" y2="247.91" gradientUnits="userSpaceOnUse"><stop offset="0.15" stop-color="#fff" stop-opacity="0"/><stop offset="0.54" stop-color="#fff" stop-opacity="0.7"/><stop offset="1" stop-color="#fff" stop-opacity="0"/></linearGradient><linearGradient id="linear-gradient-24" x1="417.46" y1="291.25" x2="605.94" y2="291.25" gradientTransform="matrix(1, 0, 0, 1, 0, 0)" xlink:href="#linear-gradient-3"/><linearGradient id="linear-gradient-25" x1="511.7" y1="335.23" x2="511.7" y2="247.27" gradientUnits="userSpaceOnUse"><stop offset="0.13" stop-color="#0b72b5"/><stop offset="0.68" stop-color="#39a9dc"/><stop offset="0.99" stop-color="#0b72b5"/></linearGradient><linearGradient id="linear-gradient-26" x1="510.9" y1="310.87" x2="510.9" y2="235.2" gradientUnits="userSpaceOnUse"><stop offset="0" stop-color="#fff" stop-opacity="0.5"/><stop offset="0.24" stop-color="#fff" stop-opacity="0"/></linearGradient></defs><path class="cls-1" d="M249.83,228.66a3.67,3.67,0,0,0,3.67,3.68h12.64a3.69,3.69,0,0,0,3.68-3.68V216a3.68,3.68,0,0,0-3.68-3.68H253.5a3.67,3.67,0,0,0-3.67,3.68Z" transform="translate(-205.2 -203.93)"/><path class="cls-2" d="M253.5,212.34h12.64a3.68,3.68,0,0,1,3.68,3.68v7.31a24.23,24.23,0,0,1-9.48.32,22.58,22.58,0,0,1-10.51-4.21V216A3.67,3.67,0,0,1,253.5,212.34Z" transform="translate(-205.2 -203.93)"/><path class="cls-3" d="M260.31,251a5.2,5.2,0,0,0,5.2,5.21H283.4a5.22,5.22,0,0,0,5.22-5.21v-17.9a5.21,5.21,0,0,0-5.22-5.2H265.51a5.2,5.2,0,0,0-5.2,5.2Z" transform="translate(-205.2 -203.93)"/><path class="cls-4" d="M265.51,227.94H283.4a5.21,5.21,0,0,1,5.22,5.2V243.5a34.25,34.25,0,0,1-13.42.45c-6.09-.93-11.37-3.15-14.89-6v-4.85A5.2,5.2,0,0,1,265.51,227.94Z" transform="translate(-205.2 -203.93)"/><path class="cls-5" d="M240.49,215a2.45,2.45,0,0,0,2.45,2.45h8.44a2.45,2.45,0,0,0,2.45-2.45v-8.44a2.45,2.45,0,0,0-2.45-2.45h-8.44a2.45,2.45,0,0,0-2.45,2.45Z" transform="translate(-205.2 -203.93)"/><path class="cls-6" d="M242.94,204.07h8.44a2.45,2.45,0,0,1,2.45,2.45v4.88a16.22,16.22,0,0,1-6.32.21,15,15,0,0,1-7-2.81v-2.28A2.45,2.45,0,0,1,242.94,204.07Z" transform="translate(-205.2 -203.93)"/><path class="cls-7" d="M231.86,239.18a2.82,2.82,0,0,0,2.81,2.82h9.68a2.82,2.82,0,0,0,2.81-2.82V229.5a2.81,2.81,0,0,0-2.81-2.81h-9.68a2.81,2.81,0,0,0-2.81,2.81Z" transform="translate(-205.2 -203.93)"/><path class="cls-8" d="M234.67,226.69h9.68a2.81,2.81,0,0,1,2.81,2.81v5.6a18.58,18.58,0,0,1-7.25.25,17.3,17.3,0,0,1-8-3.23V229.5A2.81,2.81,0,0,1,234.67,226.69Z" transform="translate(-205.2 -203.93)"/><path class="cls-9" d="M283.14,246.85C185,310.31,409.52,343.57,403.56,412,382.36,344.39,167.29,320,283.14,246.85Z" transform="translate(-205.2 -203.93)"/><path class="cls-10" d="M283.14,246.85C185,310.31,409.52,343.57,403.56,412,382.36,344.39,167.29,320,283.14,246.85Z" transform="translate(-205.2 -203.93)"/><path class="cls-11" d="M251.28,278.17c3.87-9.47,13.9-19.79,32.17-31.32C185.34,310.31,409.83,343.57,403.87,412c-2.13-6.77-6.19-13.1-11.67-19.09C367.74,347.83,250.58,317.89,251.28,278.17Z" transform="translate(-205.2 -203.93)"/><path class="cls-12" d="M277.29,320.52c27.22,18.13,69.1,35,97.71,55.48C344,356.06,300.68,339.25,277.29,320.52Z" transform="translate(-205.2 -203.93)"/><path class="cls-13" d="M205.2,412c0,12.78,58.57,23.16,130.81,23.16S466.82,424.75,466.82,412,408.26,388.82,336,388.82,205.2,399.18,205.2,412Z" transform="translate(-205.2 -203.93)"/><path class="cls-14" d="M274.57,373.3q22.68,16.43,81.49,5.22Q294.55,401.74,274.57,373.3Z" transform="translate(-205.2 -203.93)"/><path class="cls-15" d="M262.1,353.49q16.54,12,59.48,3.82Q276.67,374.25,262.1,353.49Z" transform="translate(-205.2 -203.93)"/><path class="cls-16" d="M261.41,339.05q10.32,7.49,37.09,2.37Q270.5,352,261.41,339.05Z" transform="translate(-205.2 -203.93)"/><path class="cls-17" d="M275.43,389c-112.92-101,130.32-84.67,80.64-156.84C436.28,308.06,173.32,299.75,275.43,389Z" transform="translate(-205.2 -203.93)"/><path class="cls-18" d="M267.32,381.75a109.36,109.36,0,0,1-15.7-19.05c-30.79-59.62,150-67.56,107.76-124.28a49,49,0,0,0-3.69-6.24C433.65,305.93,187.43,300.16,267.32,381.75Z" transform="translate(-205.2 -203.93)"/><path class="cls-19" d="M269.32,383.7l-.48-.43-1.52-1.52C268,382.39,268.64,383.05,269.32,383.7Z" transform="translate(-205.2 -203.93)"/><path class="cls-20" d="M269.8,384.16q2.49,2.38,5.26,4.86c-2.05-1.78-3.93-3.52-5.69-5.24Z" transform="translate(-205.2 -203.93)"/><path class="cls-21" d="M337,250.39a18.37,18.37,0,1,0-18.37,18.37A18.36,18.36,0,0,0,337,250.39Z" transform="translate(-205.2 -203.93)"/><path class="cls-22" d="M318.67,250.39" transform="translate(-205.2 -203.93)"/><path class="cls-23" d="M315.86,263.49a18.32,18.32,0,0,0,17.38-24.26,18.36,18.36,0,1,1-32,17A18.33,18.33,0,0,0,315.86,263.49Z" transform="translate(-205.2 -203.93)"/><path class="cls-24" d="M305.8,240.29c0,4.47,5.73,8.1,12.82,8.1s12.82-3.63,12.82-8.1-5.74-8.11-12.82-8.11S305.8,235.81,305.8,240.29Z" transform="translate(-205.2 -203.93)"/><path class="cls-25" d="M360.68,263.92C340.49,294,248.44,303.11,246.93,342.61,245.83,305,336,292.12,360.68,263.92Z" transform="translate(-205.2 -203.93)"/><path class="cls-26" d="M419.28,258.61a10.32,10.32,0,1,1,10.33,10.32A10.32,10.32,0,0,1,419.28,258.61Z" transform="translate(-205.2 -203.93)"/><path class="cls-27" d="M429.61,258.61" transform="translate(-205.2 -203.93)"/><path class="cls-28" d="M422.42,258.61a10.28,10.28,0,0,1,8.72-10.16,9.1,9.1,0,0,0-1.58-.17,10.33,10.33,0,1,0,0,20.65,9.1,9.1,0,0,0,1.58-.16A10.3,10.3,0,0,1,422.42,258.61Z" transform="translate(-205.2 -203.93)"/><path class="cls-29" d="M416.2,356.83v-10h1v10Z" transform="translate(-205.2 -203.93)"/><path class="cls-29" d="M422.52,356.83v-10h1.27l7,9v-9h1v10h-1.33l-6.93-9v9Z" transform="translate(-205.2 -203.93)"/><path class="cls-29" d="M436.65,353.54h1v0a2.24,2.24,0,0,0,.86,1.84,3.61,3.61,0,0,0,2.31.69,4,4,0,0,0,2.26-.56,1.72,1.72,0,0,0,.84-1.5,1.26,1.26,0,0,0-.48-1.08,5.36,5.36,0,0,0-2-.65l-2.13-.37a3.06,3.06,0,0,1-1.78-.82,2.35,2.35,0,0,1-.59-1.67,2.52,2.52,0,0,1,1-2.11,5.36,5.36,0,0,1,5.62,0,2.82,2.82,0,0,1,1.09,2.26h-1a2.12,2.12,0,0,0-.84-1.61,3.44,3.44,0,0,0-2.07-.55,3.61,3.61,0,0,0-2,.52,1.6,1.6,0,0,0-.76,1.4,1.25,1.25,0,0,0,.53,1.08,5.27,5.27,0,0,0,2,.63l1.89.33a3.76,3.76,0,0,1,2,.85A2.3,2.3,0,0,1,445,354a2.66,2.66,0,0,1-1.07,2.26,4.84,4.84,0,0,1-3,.81,4.89,4.89,0,0,1-3.14-.91,3,3,0,0,1-1.14-2.49Z" transform="translate(-205.2 -203.93)"/><path class="cls-29" d="M452.59,356.83v-9.07h-3.86v-.92h8.72v.92h-3.86v9.07Z" transform="translate(-205.2 -203.93)"/><path class="cls-29" d="M461.63,356.83v-10h1v10Z" transform="translate(-205.2 -203.93)"/><path class="cls-29" d="M470.66,356.83v-9.07H466.8v-.92h8.72v.92h-3.86v9.07Z" transform="translate(-205.2 -203.93)"/><path class="cls-29" d="M479.64,346.84h1V353a3.16,3.16,0,0,0,.8,2.4,4.61,4.61,0,0,0,5.07,0,3.16,3.16,0,0,0,.81-2.4v-6.13h1v6.4a3.63,3.63,0,0,1-1.13,2.86,5.78,5.78,0,0,1-6.47,0,3.7,3.7,0,0,1-1.11-2.91Z" transform="translate(-205.2 -203.93)"/><path class="cls-29" d="M496.33,356.83v-9.07h-3.86v-.92h8.71v.92h-3.85v9.07Z" transform="translate(-205.2 -203.93)"/><path class="cls-29" d="M512.68,356.83v-10h7.4v.94h-6.4v3.45h5.7v1h-5.7v4.62Z" transform="translate(-205.2 -203.93)"/><path class="cls-29" d="M524.61,356.83v-10h4.79a4.41,4.41,0,0,1,2.68.67,2.37,2.37,0,0,1,.9,2,2.72,2.72,0,0,1-.41,1.59,2.45,2.45,0,0,1-1.32.89,1.75,1.75,0,0,1,1.1.51,2.82,2.82,0,0,1,.44,1.39c0,.26.06.62.09,1.07a4.34,4.34,0,0,0,.39,1.85h-1.16a6.88,6.88,0,0,1-.25-1.6q-.06-1-.09-1.32a1.43,1.43,0,0,0-.54-1.05,2.47,2.47,0,0,0-1.41-.32h-4.21v4.29Zm4.56-9.06h-3.56v3.83h3.68a3.63,3.63,0,0,0,2.06-.45,1.68,1.68,0,0,0,.63-1.47,1.66,1.66,0,0,0-.63-1.47A4,4,0,0,0,529.17,347.77Z" transform="translate(-205.2 -203.93)"/><path class="cls-29" d="M536.92,356.83l4.61-10h1.15l4.56,10h-1l-1.4-3.09h-5.47L538,356.83Zm2.88-4.05h4.58l-2.28-5.11Z" transform="translate(-205.2 -203.93)"/><path class="cls-29" d="M551.45,356.83v-10h1.26l7,9v-9h1v10h-1.33l-6.93-9v9Z" transform="translate(-205.2 -203.93)"/><path class="cls-29" d="M574.33,350.11a3.07,3.07,0,0,0-1.24-1.9,4.06,4.06,0,0,0-2.39-.66,4.17,4.17,0,0,0-3.1,1.14,5,5,0,0,0,0,6.26,3.83,3.83,0,0,0,2.93,1.17,4.09,4.09,0,0,0,2.58-.83,3.69,3.69,0,0,0,1.37-2.21h1.06a4.73,4.73,0,0,1-1.68,2.93,5.12,5.12,0,0,1-3.3,1.08,4.87,4.87,0,0,1-3.69-1.43,6,6,0,0,1,0-7.68,5.18,5.18,0,0,1,3.85-1.4,5.09,5.09,0,0,1,3.16.93,3.87,3.87,0,0,1,1.48,2.6Zm-5.46,9.43.16-.44c.29.08.55.15.78.19a3.91,3.91,0,0,0,.64.06,1.3,1.3,0,0,0,.73-.16.57.57,0,0,0,.25-.49.49.49,0,0,0-.17-.4.75.75,0,0,0-.49-.14l-.27,0-.49.09-.27-.2.7-1.25H571l-.49.86.3-.06.29,0a1.34,1.34,0,0,1,.91.29,1.06,1.06,0,0,1,.32.82,1,1,0,0,1-.42.86,2,2,0,0,1-1.19.31,4.45,4.45,0,0,1-.83-.09A5.92,5.92,0,0,1,568.87,359.54Z" transform="translate(-205.2 -203.93)"/><path class="cls-29" d="M579,356.83l4.61-10h1.15l4.56,10h-1l-1.4-3.09h-5.47L580,356.83Zm2.88-4.05h4.58l-2.28-5.11Z" transform="translate(-205.2 -203.93)"/><path class="cls-29" d="M593.58,356.83v-10h1v10Z" transform="translate(-205.2 -203.93)"/><path class="cls-29" d="M599.54,353.54h1v0a2.23,2.23,0,0,0,.87,1.84,3.58,3.58,0,0,0,2.3.69,4.08,4.08,0,0,0,2.27-.56,1.73,1.73,0,0,0,.83-1.5,1.26,1.26,0,0,0-.48-1.08,5.23,5.23,0,0,0-2-.65l-2.13-.37a3.06,3.06,0,0,1-1.77-.82,2.3,2.3,0,0,1-.59-1.67,2.52,2.52,0,0,1,1-2.11,4.45,4.45,0,0,1,2.77-.78,4.51,4.51,0,0,1,2.85.81,2.84,2.84,0,0,1,1.08,2.26h-1a2.15,2.15,0,0,0-.83-1.61,3.44,3.44,0,0,0-2.07-.55,3.65,3.65,0,0,0-2.06.52,1.61,1.61,0,0,0-.75,1.4,1.23,1.23,0,0,0,.53,1.08,5.21,5.21,0,0,0,2,.63l1.9.33a3.76,3.76,0,0,1,2,.85,2.3,2.3,0,0,1,.63,1.72,2.69,2.69,0,0,1-1.07,2.26,5.88,5.88,0,0,1-6.12-.1,3,3,0,0,1-1.14-2.49Z" transform="translate(-205.2 -203.93)"/><path class="cls-29" d="M419.77,363.44a12,12,0,0,1,2.59.21,4,4,0,0,1,1.53.71,3.78,3.78,0,0,1,1.19,1.63,7.92,7.92,0,0,1,0,4.91,3.85,3.85,0,0,1-1.21,1.64,4,4,0,0,1-1.51.69,12,12,0,0,1-2.59.21h-3.64v-10Zm-.22.9h-2.42v8.14h2.64a10.83,10.83,0,0,0,2-.14,3.47,3.47,0,0,0,1.24-.5,2.76,2.76,0,0,0,1.06-1.31,6,6,0,0,0,.34-2.16,5.53,5.53,0,0,0-.35-2.09,2.85,2.85,0,0,0-1.05-1.31,3.42,3.42,0,0,0-1.26-.48A12.22,12.22,0,0,0,419.55,364.34Z" transform="translate(-205.2 -203.93)"/><path class="cls-29" d="M429,373.44v-10h7.69v.94H430v3.5h6.17v.94H430v3.68h6.69v.94Z" transform="translate(-205.2 -203.93)"/><path class="cls-29" d="M446.36,373.44v-10h4.85a3.72,3.72,0,0,1,2.35.64,2.58,2.58,0,0,1,.41,3.23,2.58,2.58,0,0,1-1.18.86,2.32,2.32,0,0,1,1.44.79,2.4,2.4,0,0,1,.5,1.57,2.71,2.71,0,0,1-.86,2.2,4.2,4.2,0,0,1-2.67.71Zm1-5.7h3.54a3.35,3.35,0,0,0,1.87-.4,1.8,1.8,0,0,0,0-2.58,3.05,3.05,0,0,0-1.79-.4h-3.63Zm0,4.7h3.74a3.46,3.46,0,0,0,2-.43,1.57,1.57,0,0,0,.61-1.38,1.9,1.9,0,0,0-.56-1.52,2.78,2.78,0,0,0-1.81-.48h-3.95Z" transform="translate(-205.2 -203.93)"/><path class="cls-29" d="M458.36,373.44v-10h1v10Z" transform="translate(-205.2 -203.93)"/><path class="cls-29" d="M473.47,368.44a4.87,4.87,0,1,1-1.41-3.85A5.21,5.21,0,0,1,473.47,368.44Zm-5.26,4.3a4.18,4.18,0,0,0,3.11-1.15,5,5,0,0,0,0-6.3,4.81,4.81,0,0,0-6.22,0,5,5,0,0,0,0,6.3A4.18,4.18,0,0,0,468.21,372.74Z" transform="translate(-205.2 -203.93)"/><path class="cls-29" d="M477.08,373.44v-10h1v10Z" transform="translate(-205.2 -203.93)"/><path class="cls-29" d="M482.17,373.44v-10h1.27l7,9v-9h1v10h-1.33l-6.93-9v9Z" transform="translate(-205.2 -203.93)"/><path class="cls-29" d="M495.44,373.44v-10h7.39v.95h-6.39v3.45h5.7v1h-5.7v4.62Z" transform="translate(-205.2 -203.93)"/><path class="cls-29" d="M516.16,368.44a4.87,4.87,0,1,1-1.41-3.85A5.21,5.21,0,0,1,516.16,368.44Zm-5.26,4.3a4.16,4.16,0,0,0,3.1-1.15,5,5,0,0,0,0-6.3,4.8,4.8,0,0,0-6.21,0,5,5,0,0,0,0,6.3A4.17,4.17,0,0,0,510.9,372.74Z" transform="translate(-205.2 -203.93)"/><path class="cls-29" d="M519.69,373.44v-10h4.8a4.45,4.45,0,0,1,2.68.68,2.35,2.35,0,0,1,.9,2,2.7,2.7,0,0,1-.42,1.59,2.49,2.49,0,0,1-1.31.9,1.72,1.72,0,0,1,1.09.51,2.68,2.68,0,0,1,.44,1.39c0,.26.06.61.1,1.07a4.08,4.08,0,0,0,.39,1.85H527.2a6.47,6.47,0,0,1-.25-1.61c-.05-.68-.08-1.12-.1-1.31a1.42,1.42,0,0,0-.54-1.06,2.45,2.45,0,0,0-1.41-.31h-4.21v4.29Zm4.56-9.06h-3.56v3.83h3.68a3.61,3.61,0,0,0,2.06-.45,1.71,1.71,0,0,0,.63-1.48,1.66,1.66,0,0,0-.63-1.47A4,4,0,0,0,524.25,364.38Z" transform="translate(-205.2 -203.93)"/><path class="cls-29" d="M531.86,373.44v-10h1.59l4.22,9.07,4.27-9.07h1.47v10h-1l0-9.14-4.24,9.14h-1.14l-4.35-9.14.1,9.14Z" transform="translate(-205.2 -203.93)"/><path class="cls-29" d="M546.38,373.44l4.61-10h1.15l4.55,10h-1l-1.4-3.09h-5.47l-1.41,3.09Zm2.88-4.06h4.58l-2.28-5.11Z" transform="translate(-205.2 -203.93)"/><path class="cls-29" d="M561.31,373.44v-9.08h-3.86v-.92h8.72v.92h-3.86v9.08Z" transform="translate(-205.2 -203.93)"/><path class="cls-29" d="M569.11,373.44v-10h1v10Z" transform="translate(-205.2 -203.93)"/><path class="cls-29" d="M581.85,373.05a4.92,4.92,0,0,1-1.33.49,6.77,6.77,0,0,1-1.55.16,5.46,5.46,0,1,1,5.25-5.26,6.23,6.23,0,0,1-.39,2.28,4.93,4.93,0,0,1-1.23,1.76l1.5,1.19-.64.71Zm-.83-.71-1.21-1,.66-.74,1.43,1.22a4.2,4.2,0,0,0,1-1.49,5.46,5.46,0,0,0,.32-1.93,4.29,4.29,0,0,0-1.13-3.15,4.8,4.8,0,0,0-6.21,0,5,5,0,0,0,0,6.3,4.17,4.17,0,0,0,3.11,1.15,6.17,6.17,0,0,0,1.21-.11A2.5,2.5,0,0,0,581,372.34Z" transform="translate(-205.2 -203.93)"/><path class="cls-29" d="M587.78,363.44h1v6.14a3.12,3.12,0,0,0,.81,2.39,3.53,3.53,0,0,0,2.52.77,3.59,3.59,0,0,0,2.54-.77,3.14,3.14,0,0,0,.81-2.39v-6.14h1v6.4a3.6,3.6,0,0,1-1.12,2.86,5.76,5.76,0,0,1-6.47,0,3.72,3.72,0,0,1-1.11-2.91Z" transform="translate(-205.2 -203.93)"/><path class="cls-29" d="M600.52,373.44v-10h7.68v.94h-6.68v3.5h6.17v.94h-6.17v3.68h6.68v.94Z" transform="translate(-205.2 -203.93)"/><path class="cls-30" d="M587.93,284.66a85.09,85.09,0,0,0-28-5.08H534.31v-30.9l-.81-.4H510.69l-.8.4v30.7H479l-.4-7.43v-1.18c0-6.94,1.14-11,2.8-12.32,3.82-3.08,8.51-5.15,15.21-5.86,4-.43,6-.3,6-.59v-3.32l-.8-.4s-18.18.64-30,5.48c-11.26,4.6-17.61,10.34-17.61,25.62H418.26l-.8.39v54.06l.8.39h22.42l.79-.39V283.49h12.72v50.34l.8.39H478.2l.8-.39V283.49h30.89v50.34l.8.39h49.63a87,87,0,0,0,24-3.72q21.61-8.1,21.61-18.57v-9.67Q605.94,292.43,587.93,284.66Zm-6.4,34.5c0,4-9.54,11-21.61,11h-26V283.68h24.81c6.83,0,22.88,1.62,22.81,10.95Z" transform="translate(-205.2 -203.93)"/><path class="cls-31" d="M604.33,296.59q-3.76-6.48-16.4-11.93a85.09,85.09,0,0,0-28-5.08H534.31v-30.9l-.81-.4H510.69l-.8.4v30.7H479l-.4-7.43v-1.18c0-6.94,1.14-11,2.8-12.32,3.82-3.08,8.51-5.15,15.21-5.86,4-.43,6-.3,6-.59v-3.32l-.8-.4s-18.18.64-30,5.48c-11.26,4.6-17.61,10.34-17.61,25.62H418.26l-.8.39V301.6a226.36,226.36,0,0,0,24,5.54V283.49h12.72V309.1c7.88,1,16.18,1.86,24.81,2.4v-28h30.89v28.72c8.24-.13,16.27-.5,24-1.09V283.68h24.81c6.83,0,22.88,1.62,22.81,10.95v9.23A159.11,159.11,0,0,0,604.33,296.59Z" transform="translate(-205.2 -203.93)"/></svg>